<svg id="Capa_1" data-name="Capa 1" xmlns="http://www.w3.org/2000/svg" viewBox="0 0 1103.32 327.54"><defs><style>.cls-1{fill:#020202;}</style></defs><path class="cls-1" d="M290.58,208.73,373.49,78.44l5.64,1.12a112.71,112.71,0,0,0-42.86-20.87,108.37,108.37,0,0,0-57,.57Z"/><path class="cls-1" d="M205.41,125.81l3.39-7.89C207.67,120.74,206.54,123,205.41,125.81Z"/><path class="cls-1" d="M367.29,156.27l-75,117.88-34.4-8.46L247.15,126.38l-38.92,88.55a110.5,110.5,0,0,0,74.45,60.91c26.51,6.77,53.59,2.82,76.71-8.46Z"/><path class="cls-1" d="M409,116.22l-9,116.19a96.43,96.43,0,0,0,18.05-38.35A111.59,111.59,0,0,0,409,116.22Z"/><path class="cls-1" d="M196.39,167c0-17.49,4.51-33.84,11.28-48.51a103.7,103.7,0,0,0-11.28,46.25Z"/><path class="cls-1" d="M196.39,167v-2.26a103.7,103.7,0,0,1,11.28-46.25,160.55,160.55,0,0,1,13-20.87V96.48L194.7,121.87c-20.31-21.44-42.87-32.15-68.25-32.15q-32.15,0-54.15,22c-14.66,14.67-22,32.72-22,53.59,0,15.22,3.39,28.2,10.16,40a69.33,69.33,0,0,0,27.07,27.07A77.67,77.67,0,0,0,127,242.57a82.49,82.49,0,0,0,33.84-7.34c10.16-4.51,21.44-13,33.85-24.81l25.94,27.07v-1.13A110.27,110.27,0,0,1,196.39,167Z"/><path class="cls-1" d="M220.64,89.72V69.41H196.39A118.89,118.89,0,0,1,220.64,89.72Z"/><path class="cls-1" d="M58.2,69.41H30V95.92A105.76,105.76,0,0,1,58.2,69.41Z"/><path class="cls-1" d="M227.41,243.69a184.39,184.39,0,0,1-18.61,15.23h21.43V247.08A14.82,14.82,0,0,1,227.41,243.69Z"/><path class="cls-1" d="M30,235.23v23.69H53.69a94.6,94.6,0,0,1-11.85-10.15A125.84,125.84,0,0,1,30,235.23Z"/><path class="cls-1" d="M455.39,242.92V240.7h8.15V179.93h-8.15V177.7H488a37.72,37.72,0,0,1,8.15,1.49,34.4,34.4,0,0,1,7.41,3.7l6.67,6.67a22.91,22.91,0,0,1,4.45,9.64c1.48,3.7,1.48,7.41,1.48,11.85,0,3.71,0,8.16-1.48,11.12a22.81,22.81,0,0,1-4.45,9.63,46.84,46.84,0,0,1-6.67,5.93c-2.22,2.23-5.18,3-7.41,4.45a33.26,33.26,0,0,1-8.15.74Zm17.79-2.22h12.6a26.67,26.67,0,0,0,8.15-1.48,41.94,41.94,0,0,0,5.93-4.45c1.48-1.48,2.22-3.71,3.7-6.67.75-3,1.49-5.19,1.49-8.15a36.19,36.19,0,0,0,.74-8.9,39.18,39.18,0,0,0-.74-9.63c0-3-.74-5.19-1.49-8.15-1.48-3-2.22-5.19-3.7-6.67a11.5,11.5,0,0,0-5.93-4.45,15,15,0,0,0-8.15-2.22h-12.6Z"/><path class="cls-1" d="M524.32,242.92V240.7H531V205.12h-6.67V202.9H538.4v37.8h6.67v2.22ZM531,185.11c-1.49-.74-1.49-2.22-1.49-3.7s0-3,1.49-3.71a4.2,4.2,0,0,1,7.41,0,5.38,5.38,0,0,1,0,7.41,4.19,4.19,0,0,1-7.41,0Z"/><path class="cls-1" d="M554,243.66V228.1h1.48a35.54,35.54,0,0,0,2.23,5.19l2.22,4.44c.74,1.49,2.22,2.23,3,3a9.45,9.45,0,0,0,4.45.74,18.62,18.62,0,0,0,7.41-1.48,7.18,7.18,0,0,0,0-10.38c-1.48-1.48-4.45-2.22-8.89-3.7-1.48-.75-3.71-1.49-4.45-2.23a16.18,16.18,0,0,1-3.7-2.22c-1.49-.74-2.23-2.22-3-3.71a9.39,9.39,0,0,1-.74-4.44c0-3.71.74-5.93,3-8.16a11.17,11.17,0,0,1,8.16-3,21.73,21.73,0,0,1,6.67,1.48,5.73,5.73,0,0,0,2.22.74,4.09,4.09,0,0,0,3.71-2.22h1.48v12.6h-1.48a16.31,16.31,0,0,0-3.71-5.93,9,9,0,0,0-3.71-3.71c-1.48-.74-3.7-.74-5.92-.74a5.61,5.61,0,0,0-3.71,1.49,4.07,4.07,0,0,0-1.48,3.7v3c.74.74.74,1.48,1.48,2.22a9.16,9.16,0,0,0,2.22,1.48c.74,0,1.49.74,3,.74a4.35,4.35,0,0,0,3.7,1.48,44.86,44.86,0,0,1,10.38,5.19c1.48,2.23,3,4.45,3,8.15a12.3,12.3,0,0,1-3.7,8.9c-3,2.22-6.67,3-11.86,3a18.45,18.45,0,0,1-5.93-.74,8,8,0,0,0-3.7-.74c-1.49,0-2.23.74-2.23,1.48Z"/><path class="cls-1" d="M590.27,223.65a20.93,20.93,0,0,1,3-11.11c1.48-3,3.7-5.93,6.67-7.42a17,17,0,0,1,10.37-3,21.6,21.6,0,0,1,6.67,1.48c1.49.74,3.71,2.23,4.45,3.71a12,12,0,0,1,3,5.19,12.59,12.59,0,0,1,.74,5.18c0,1.49,0,2.23-.74,3a3.28,3.28,0,0,1-2.23.74h-23c0,12.6,3.7,19.27,12.6,19.27,3,0,5.93-.74,7.41-3a11.89,11.89,0,0,0,3.7-8.15h2.23c0,1.48-.74,3.71-.74,5.19a15.92,15.92,0,0,1-3,4.45,15.38,15.38,0,0,1-4.45,3c-2.22,1.48-4.44,1.48-6.67,1.48-5.92,0-10.37-1.48-14.08-5.19A20.7,20.7,0,0,1,590.27,223.65Zm8.9-4.44h15.56a3.89,3.89,0,0,0,3-1.49v-3a12.52,12.52,0,0,0-2.23-7.41c-.74-2.23-3-3-5.93-3a9.39,9.39,0,0,0-4.44.74,10.11,10.11,0,0,1-3,2.23c-.74,1.48-.74,2.22-1.48,3.7s-.74,2.23-1.48,3.71Z"/><path class="cls-1" d="M634,242.92V240.7h5.93V205.12H634V202.9h13.34v9.64h.74a20.24,20.24,0,0,1,5.93-7.42,11.15,11.15,0,0,1,8.15-3,12.27,12.27,0,0,1,8.9,3.71c2.22,2.22,3,5.92,3,9.63v25.2h6.67v2.22H659.94V240.7h6.67V214c0-5.93-2.22-8.9-7.41-8.9a6.73,6.73,0,0,0-5.19,2.23,13.36,13.36,0,0,0-3.71,5.19c-.74,1.48-1.48,3.7-2.22,5.18,0,2.23-.74,4.45-.74,6.67V240.7H654v2.22ZM642.15,194c.74-5.93,3.71-8.9,8.15-8.9,1.49,0,3.71.75,7.42,2.23,3,.74,5.18,1.48,6.67,1.48h2.22l.74-1.48.74-1.48v-1.49h2.22c-.74,6.67-3.7,9.64-8.15,9.64a19.56,19.56,0,0,1-7.41-2.23,19.64,19.64,0,0,0-7.41-2.22c-.74,0-.74.74-1.48.74l-.74.74-.74,1.49a2.7,2.7,0,0,1-.75,2.22Z"/><path class="cls-1" d="M693.29,237.73a21.48,21.48,0,0,1,0-29.64c3.71-3.71,8.15-5.93,13.34-5.93a19,19,0,0,1,14.08,5.93c3.71,3.7,5.19,8.89,5.19,14.82s-1.48,11.12-5.19,14.82c-3.7,4.45-8.15,5.93-14.08,5.93C701.44,243.66,697,242.18,693.29,237.73Zm5.19-28.9c-1.48,3-2.23,7.41-2.23,14.08S697,234,698.48,237c2.22,3,4.44,4.45,8.15,4.45s6.67-1.48,8.15-4.45c2.23-3,3-7.41,3-14.08s-.74-11.12-3-14.08c-1.48-3-4.44-4.45-8.15-4.45S700.7,205.87,698.48,208.83Z"/><path class="cls-1" d="M760.73,211.05A30.73,30.73,0,0,1,763,199.2a23.15,23.15,0,0,1,4.45-9.64,21,21,0,0,1,7.41-6.67,17.83,17.83,0,0,1,8.15-4.45c3-1.48,5.93-1.48,9.64-1.48a65.38,65.38,0,0,1,12.6,1.48,12.31,12.31,0,0,0,3.7,1.49c1.49,0,1.49-.74,2.23-.74.74-.75.74-1.49,1.48-2.23h2.22v20.75h-2.22a25.8,25.8,0,0,0-5.19-11.11c-.74-.74-1.48-2.23-2.22-3L803,181.41a10.52,10.52,0,0,0-4.44-1.48,16.37,16.37,0,0,0-5.93-.74c-6.67,0-11.86,2.22-15.56,8.15-3.71,5.19-5.19,13.34-5.19,23.71,0,9.64,1.48,17.79,5.19,23a18.33,18.33,0,0,0,15.56,8.15c4.45,0,8.15-1.48,10.37-4.45,3-3,3.71-6.67,3.71-11.11V220H793.34v-2.23h33.35V220H816.31v23h-2.22c0-.74-.74-1.48-.74-2.22a2.72,2.72,0,0,0-2.22-.74c-1.49,0-3,.74-5.19,1.48a33.72,33.72,0,0,1-13.34,3,30.78,30.78,0,0,1-11.86-2.22,28.23,28.23,0,0,1-9.63-6.67c-3-3-5.93-6.67-7.41-10.38C762.21,220.69,760.73,215.5,760.73,211.05Z"/><path class="cls-1" d="M828.91,242.92V240.7h6.67V205.12h-6.67V202.9H843v9.64h.75c1.48-3.71,3-6.67,4.44-8.16a12.55,12.55,0,0,1,7.41-2.22,8.41,8.41,0,0,1,5.93,2.22,10.77,10.77,0,0,1,1.48,5.19,9.43,9.43,0,0,1-.74,4.45,5.65,5.65,0,0,1-3.7,1.48c-.74,0-1.48,0-1.48-.74-.75-.74-1.49-.74-1.49-2.22v-5.19c0-2.23-.74-3-2.22-3-2.22,0-3,.74-4.45,2.23a11.38,11.38,0,0,0-3,4.44c-2.22,3.71-3,8.16-3,13.34V240.7h6.67v2.22Z"/><path class="cls-1" d="M870.42,234c0-3.71,1.48-5.93,3-8.15,2.22-1.49,4.45-2.23,8.15-3,2.23-.74,4.45-.74,5.93-1.48s3.71-1.48,5.19-3v-7.41c-.74-1.48-.74-2.22-1.48-3a5.85,5.85,0,0,0-3-3c-.74-.74-2.22-.74-3.7-.74a13.56,13.56,0,0,0-5.19,1.49,3.84,3.84,0,0,0-1.48,3,2.72,2.72,0,0,0,.74,2.22c.74.74.74,2.23.74,3a2.72,2.72,0,0,1-.74,2.22c-.74.74-1.48.74-3,.74s-3,0-3.7-.74-.74-2.22-.74-3.7c0-2.23,1.48-5.19,3.7-7.42,3-1.48,5.93-3,10.38-3q7.78,0,11.11,4.45a18.15,18.15,0,0,1,3.71,11.11v17.79a6.28,6.28,0,0,0,1.48,4.45,3.85,3.85,0,0,0,3,1.48c.74,0,2.22,0,3-.74l.74,2.22a9.39,9.39,0,0,1-4.44.74c-3,0-5.19,0-6.67-1.48-2.23-.74-3-3-3.71-5.19h-.74a17.24,17.24,0,0,1-5.19,5.19,14.79,14.79,0,0,1-6.67,1.48,12.53,12.53,0,0,1-7.41-2.22C871.9,239.22,870.42,237,870.42,234Zm7.41-.74c0,5.18,2.22,7.41,6.67,7.41a6.37,6.37,0,0,0,4.44-2.23,7.56,7.56,0,0,0,3.71-4.44V220.69a6.42,6.42,0,0,1-4.45,2.22c-.74.74-3,1.48-5.19,1.48C879.31,225.88,877.83,228.84,877.83,233.29Zm3.7-38.54L886,181.41q2.22-4.46,4.45-4.45c1.48,0,2.22,0,3,.74,0,.74.74.74.74,2.23a6.4,6.4,0,0,1-2.22,4.44L883,195.49Z"/><path class="cls-1" d="M914.14,205.12V202.9h6.67v-3c0-6.67,1.48-12.6,4.45-16.31a17.44,17.44,0,0,1,5.93-6.67,14.31,14.31,0,0,1,7.41-2.22,22,22,0,0,1,7.41,1.48,9.4,9.4,0,0,1,3,6.67,5.68,5.68,0,0,1-1.48,3.71,3,3,0,0,1-3,1.48c-3,0-3.71-.74-3.71-3v-3c0-.74.74-1.48.74-2.22s-.74-1.49-.74-2.23a3.84,3.84,0,0,0-3-1.48c-3,0-5.19,2.22-6.67,5.19-2.23,3-3,7.41-3,13.34v8.15h9.64v2.22h-9.64V240.7h6.67v2.22H914.14V240.7h6.67V205.12Z"/><path class="cls-1" d="M946,242.92V240.7h6.67V205.12H946V202.9h14.08v37.8h6.67v2.22Zm5.93-57.81a5.38,5.38,0,0,1,0-7.41c1.48-1.48,2.22-2.22,3.7-2.22a6.4,6.4,0,0,1,4.45,2.22,5.38,5.38,0,0,1,0,7.41,6.37,6.37,0,0,1-4.45,2.23C954.16,187.34,953.42,186.6,951.94,185.11Z"/><path class="cls-1" d="M974.17,223.65c0-3,0-5.93,1.48-8.15a14.44,14.44,0,0,1,3.71-6.67,23.12,23.12,0,0,1,6.67-5.19,26.36,26.36,0,0,1,7.41-1.48,21.67,21.67,0,0,1,6.67,1.48,15.91,15.91,0,0,1,3.71,2.23,13,13,0,0,1,3,3.7c0,1.48.74,2.22.74,3.71s-.74,2.22-1.48,3.7a5.66,5.66,0,0,1-3.71,1.48c-.74,0-2.22,0-2.22-.74-.74-.74-1.48-1.48-1.48-2.22a6.72,6.72,0,0,1,.74-3.71c0-.74.74-1.48.74-3a4,4,0,0,0-2.22-3,6.24,6.24,0,0,0-4.45-1.49c-3.7,0-6.67,1.49-8.15,5.19-2.22,3-3,7.41-3,12.6,0,5.93.75,10.38,3,14.08,2.22,3,5.19,5.19,9.63,5.19a10.51,10.51,0,0,0,4.45-1.48,5.56,5.56,0,0,0,3-1.49c.75-1.48,1.49-2.22,2.23-3.7,0-.74.74-2.22.74-3,0-1.48.74-2.22.74-3.7h2.22a9.45,9.45,0,0,1-.74,4.45,12.5,12.5,0,0,1-1.48,3.7,16.27,16.27,0,0,1-2.22,3.71c-.74,1.48-2.23,2.22-4.45,3-1.48.74-3.71.74-5.93.74-5.93,0-10.37-1.48-14.08-5.19S974.17,229.58,974.17,223.65Z"/><path class="cls-1" d="M1022.34,237.73a21.51,21.51,0,0,1,0-29.64c3.71-3.71,8.16-5.93,13.34-5.93a19,19,0,0,1,14.09,5.93c3.7,3.7,5.18,8.89,5.18,14.82s-1.48,11.12-5.18,14.82c-3.71,4.45-8.16,5.93-14.09,5.93C1030.5,243.66,1026.05,242.18,1022.34,237.73Zm5.19-28.9c-1.48,3-2.22,7.41-2.22,14.08s.74,11.12,2.22,14.08a10.24,10.24,0,0,0,8.15,4.45c3.71,0,6.67-1.48,8.16-4.45,2.22-3,3-7.41,3-14.08s-.74-11.12-3-14.08c-1.49-3-4.45-4.45-8.16-4.45A10.27,10.27,0,0,0,1027.53,208.83Z"/><path class="cls-1" d="M511,112.49l.74.74h-4.45v-.74c-2.22-11.12-10.38-20-23.72-20-14.82,0-28.16,12.6-28.16,34.1,0,22.23,12.6,33.35,27.42,33.35,14.08,0,22.24-8.9,24.46-20.76v-.74h4.45l-.74.74c-2.23,13.35-11.12,24.46-28.17,24.46-18.53,0-31.87-14.08-31.87-37.05,0-22.24,14.09-37.06,32.61-37.06C499.86,89.51,508.75,99.14,511,112.49Z"/><path class="cls-1" d="M556.92,150.28l-2.22,5.19a19.66,19.66,0,0,1-16.3,8.15c-10.38,0-17-5.19-17-14.82,0-12.6,14.08-18.53,31.87-18.53h3.7v-9.63c-.74-6.67-5.18-11.12-14.08-11.12-7.41,0-14.82,3.71-15.56,13.34h-3.71c.75-9.63,8.16-16.3,19.27-16.3s17,5.18,17.79,14.08v24.45c0,5.93.74,9.64,1.48,17h-4.44Zm0-9.63V134c-15.56-1.48-31.86,3-31.86,14.08,0,7.41,5.18,11.86,14.08,11.86C549.51,159.92,556.92,151,556.92,140.65Z"/><path class="cls-1" d="M596.2,106.56v3c-9.63-.74-16.3,5.93-16.3,22.23v30.39h-4.45V108h4.45v10.37l3-6.67c2.23-3.7,6.67-5.18,11.12-5.18Z"/><path class="cls-1" d="M651.05,134.72c0,17-9.64,28.9-25.94,28.9s-25.94-11.86-25.94-28.9c0-16.31,9.63-28.16,25.94-28.16S651.05,118.41,651.05,134.72Zm-4.45,0c0-17-9.64-25.2-21.49-25.2-11.12,0-21.5,8.15-21.5,25.2s10.38,25.2,21.5,25.2C637,159.92,646.6,151.76,646.6,134.72Z"/><path class="cls-1" d="M665.13,148.8v6.67c0,3,1.48,4.45,5.93,3.71v3c-.75.74-2.23.74-3.71.74-3.71,0-5.93-1.48-5.93-6.67V86.55h3.71Z"/><path class="cls-1" d="M686.62,96.18a3.18,3.18,0,0,1-3,3c-2.22,0-3.7-1.48-3.7-3s1.48-3,3.7-3A3.18,3.18,0,0,1,686.62,96.18Zm-5.19,66V108h3.71v54.1Z"/><path class="cls-1" d="M742.2,131.75v30.39h-3.7V132.5c0-3.71-.74-5.93-.74-8.9-.74-8.15-5.19-14.08-15.57-14.08-9.63,0-17.78,6.67-17.78,22.23v30.39H700V108h4.45v11.12l2.22-5.19c3.71-5.19,9.63-7.41,16.3-7.41,11.12,0,17.79,5.93,18.53,16.3C742.2,125.82,742.2,127.31,742.2,131.75Z"/><path class="cls-1" d="M789.63,150.28l-2.22,5.19c-3.7,5.19-10.37,8.15-17,8.15-9.64,0-17-5.19-17-14.82,0-12.6,14.82-18.53,32.61-18.53h3.7v-9.63c-.74-6.67-5.92-11.12-14.08-11.12-7.41,0-14.82,3.71-15.56,13.34h-4.45c.74-9.63,8.9-16.3,20-16.3s17.05,5.18,17.79,14.08v24.45c0,5.93.74,9.64.74,17h-3.7Zm0-9.63V134c-15.56-1.48-31.86,3-31.86,14.08,0,7.41,4.44,11.86,14.08,11.86C782.22,159.92,789.63,151,789.63,140.65Z"/><path class="cls-1" d="M897.1,162.14h-3.71v-40c0-8.89-.74-19.27,0-28.16-3.71,8.89-7.41,19.27-11.12,28.16l-16.3,40h-4.45l-16.3-40c-3.71-8.89-7.41-19.27-11.12-28.16.74,8.89.74,19.27.74,28.16v40H830.4V91h6.67l26.68,67.44L891.17,91h5.93Z"/><path class="cls-1" d="M945.27,150.28l-3,5.19a19.66,19.66,0,0,1-16.3,8.15c-10.38,0-17-5.19-17-14.82,0-12.6,14.08-18.53,32.61-18.53h3v-9.63c-.74-6.67-5.19-11.12-14.08-11.12-7.42,0-14.08,3.71-15.57,13.34h-3.7c.74-9.63,8.89-16.3,19.27-16.3,11.85,0,17,5.18,17.78,14.08a22.86,22.86,0,0,1,.74,6.67v17.78a141.4,141.4,0,0,0,.75,17H946Zm-.74-9.63V134c-15.57-1.48-31.13,3-31.13,14.08,0,7.41,4.45,11.86,13.34,11.86C937.86,159.92,944.53,151,944.53,140.65Z"/><path class="cls-1" d="M984.55,106.56v3c-10.38-.74-17,5.93-17,22.23v30.39h-3.7V108h3.7v10.37l3-6.67a13.33,13.33,0,0,1,11.11-5.18Z"/><path class="cls-1" d="M992,162.14V108h3.7v54.1Zm0-60L998.63,91h3.7l-7.41,11.12Z"/><path class="cls-1" d="M1052.73,131.75v30.39H1049V132.5a33.33,33.33,0,0,0-.74-8.9c-.74-8.15-5.18-14.08-15.56-14.08-8.89,0-17.79,6.67-17.79,22.23v30.39h-4.44V108h4.44v11.12l2.23-5.19a20,20,0,0,1,16.3-7.41c11.12,0,17.79,5.93,18.53,16.3C1052.73,125.82,1052.73,127.31,1052.73,131.75Z"/></svg>