<svg id="Capa_1" data-name="Capa 1" xmlns="http://www.w3.org/2000/svg" viewBox="0 0 841.89 700.54"><defs><style>.cls-1{fill:#f5f4f5;}</style></defs><path class="cls-1" d="M518.81,331.35,643.33,135.68l8.47,1.69C633.16,123,612,112,587.42,106a162.55,162.55,0,0,0-85.55.85Z"/><path class="cls-1" d="M390.9,206.83,396,195C394.29,199.21,392.59,202.6,390.9,206.83Z"/><path class="cls-1" d="M634,252.57l-112.66,177-51.67-12.7-16.1-209.23-58.45,133c20.33,44.05,60.15,78.78,111.82,91.48,39.81,10.17,80.47,4.24,115.2-12.7Z"/><path class="cls-1" d="M696.69,192.43l-13.55,174.5c12.71-16.1,22-35.58,27.11-57.6A167.57,167.57,0,0,0,696.69,192.43Z"/><path class="cls-1" d="M377.35,268.67c0-26.26,6.77-50.83,16.94-72.85-10.17,20.33-16.94,44.05-16.94,69.46Z"/><path class="cls-1" d="M377.35,268.67v-3.39c0-25.41,6.77-49.13,16.94-69.46a241.26,241.26,0,0,1,19.48-31.34v-1.7l-39,38.12c-30.49-32.19-64.37-48.28-102.49-48.28q-48.28,0-81.32,33c-22,22-33,49.13-33,80.48,0,22.87,5.09,42.35,15.25,60.14q14,25.41,40.66,40.66c17.79,10.16,37.27,15.25,59.3,15.25a124.05,124.05,0,0,0,50.82-11c15.25-6.77,32.19-19.48,50.82-37.27l39,40.66v-1.69A165.67,165.67,0,0,1,377.35,268.67Z"/><path class="cls-1" d="M413.77,152.62v-30.5H377.35A178.63,178.63,0,0,1,413.77,152.62Z"/><path class="cls-1" d="M169.81,122.12H127.46v39.82A158.8,158.8,0,0,1,169.81,122.12Z"/><path class="cls-1" d="M423.94,383.87a279.86,279.86,0,0,1-28,22.87h32.19V389A22.34,22.34,0,0,1,423.94,383.87Z"/><path class="cls-1" d="M127.46,371.16v35.58H163a141.86,141.86,0,0,1-17.79-15.25A189.24,189.24,0,0,1,127.46,371.16Z"/><path class="cls-1" d="M123.77,598.69v-2.22h8.16V535.7h-8.16v-2.22h32.61a38.34,38.34,0,0,1,8.16,1.48,34.86,34.86,0,0,1,7.41,3.7l6.67,6.67a23,23,0,0,1,4.44,9.64c1.49,3.7,1.49,7.41,1.49,11.86,0,3.7,0,8.15-1.49,11.11a23,23,0,0,1-4.44,9.64,49.28,49.28,0,0,1-6.67,5.93c-2.23,2.22-5.19,3-7.41,4.44a33.34,33.34,0,0,1-8.16.74Zm17.79-2.22h12.6a26.67,26.67,0,0,0,8.15-1.48,40.64,40.64,0,0,0,5.93-4.45c1.48-1.48,2.22-3.7,3.71-6.67.74-3,1.48-5.19,1.48-8.15a36.15,36.15,0,0,0,.74-8.89,39.26,39.26,0,0,0-.74-9.64c0-3-.74-5.19-1.48-8.15-1.49-3-2.23-5.19-3.71-6.67a11.51,11.51,0,0,0-5.93-4.45,15,15,0,0,0-8.15-2.22h-12.6Z"/><path class="cls-1" d="M192.7,598.69v-2.22h6.67V560.9H192.7v-2.23h14.08v37.8h6.67v2.22Zm6.67-57.8c-1.48-.74-1.48-2.23-1.48-3.71s0-3,1.48-3.7a4.19,4.19,0,0,1,7.41,0,5.38,5.38,0,0,1,0,7.41,4.2,4.2,0,0,1-7.41,0Z"/><path class="cls-1" d="M222.34,599.43V583.87h1.48a37.34,37.34,0,0,0,2.23,5.19l2.22,4.45c.74,1.48,2.22,2.22,3,3a9.39,9.39,0,0,0,4.44.74,18.58,18.58,0,0,0,7.41-1.48,7.15,7.15,0,0,0,0-10.38c-1.48-1.48-4.44-2.22-8.89-3.7-1.48-.74-3.71-1.48-4.45-2.23a16.18,16.18,0,0,1-3.7-2.22c-1.48-.74-2.23-2.22-3-3.7a9.45,9.45,0,0,1-.74-4.45c0-3.71.74-5.93,3-8.15a11.1,11.1,0,0,1,8.15-3,21.67,21.67,0,0,1,6.67,1.48,5.67,5.67,0,0,0,2.22.75,4.09,4.09,0,0,0,3.71-2.23h1.48v12.6h-1.48a16.17,16.17,0,0,0-3.71-5.93,8.92,8.92,0,0,0-3.7-3.7c-1.49-.74-3.71-.74-5.93-.74a5.68,5.68,0,0,0-3.71,1.48,4.07,4.07,0,0,0-1.48,3.7v3c.74.74.74,1.48,1.48,2.22a9.11,9.11,0,0,0,2.23,1.48c.74,0,1.48.74,3,.74a4.33,4.33,0,0,0,3.71,1.49,44.6,44.6,0,0,1,10.37,5.18c1.48,2.23,3,4.45,3,8.16a12.29,12.29,0,0,1-3.71,8.89c-3,2.22-6.67,3-11.86,3a18.48,18.48,0,0,1-5.93-.74,8,8,0,0,0-3.7-.74c-1.48,0-2.23.74-2.23,1.48Z"/><path class="cls-1" d="M258.66,579.42a20.92,20.92,0,0,1,3-11.11c1.48-3,3.71-5.93,6.67-7.41a17,17,0,0,1,10.38-3,21.73,21.73,0,0,1,6.67,1.48c1.48.75,3.7,2.23,4.44,3.71a11.82,11.82,0,0,1,3,5.19,12.62,12.62,0,0,1,.74,5.19c0,1.48,0,2.22-.74,3a3.24,3.24,0,0,1-2.22.74h-23c0,12.6,3.71,19.27,12.6,19.27,3,0,5.93-.74,7.41-3a11.94,11.94,0,0,0,3.71-8.16h2.22c0,1.49-.74,3.71-.74,5.19a13.64,13.64,0,0,1-7.41,7.41c-2.23,1.48-4.45,1.48-6.67,1.48-5.93,0-10.38-1.48-14.08-5.18A20.7,20.7,0,0,1,258.66,579.42Zm8.89-4.44h15.56a3.85,3.85,0,0,0,3-1.48v-3a12.47,12.47,0,0,0-2.23-7.41c-.74-2.22-3-3-5.92-3a9.41,9.41,0,0,0-4.45.74,10.14,10.14,0,0,1-3,2.22c-.74,1.48-.74,2.22-1.48,3.71s-.74,2.22-1.48,3.7Z"/><path class="cls-1" d="M302.38,598.69v-2.22h5.93V560.9h-5.93v-2.23h13.34v9.64h.74a20.22,20.22,0,0,1,5.93-7.41,11.13,11.13,0,0,1,8.15-3,12.27,12.27,0,0,1,8.9,3.71c2.22,2.22,3,5.93,3,9.63v25.2h6.67v2.22H328.32v-2.22H335V569.79c0-5.93-2.22-8.89-7.41-8.89a6.74,6.74,0,0,0-5.19,2.22,13.24,13.24,0,0,0-3.7,5.19c-.74,1.48-1.49,3.7-2.23,5.19,0,2.22-.74,4.44-.74,6.67v16.3h6.67v2.22Zm8.16-48.91c.74-5.93,3.7-8.89,8.15-8.89,1.48,0,3.7.74,7.41,2.22,3,.74,5.19,1.48,6.67,1.48H335l.74-1.48.74-1.48v-1.48h2.23c-.74,6.67-3.71,9.63-8.16,9.63a19.69,19.69,0,0,1-7.41-2.22,19.52,19.52,0,0,0-7.41-2.23c-.74,0-.74.74-1.48.74l-.74.75-.74,1.48a2.72,2.72,0,0,1-.74,2.22Z"/><path class="cls-1" d="M361.67,593.51a21.5,21.5,0,0,1,0-29.65c3.71-3.7,8.15-5.93,13.34-5.93a19,19,0,0,1,14.08,5.93c3.71,3.71,5.19,8.89,5.19,14.82s-1.48,11.12-5.19,14.83c-3.7,4.44-8.15,5.92-14.08,5.92C369.82,599.43,365.38,598,361.67,593.51Zm5.19-28.91c-1.48,3-2.22,7.41-2.22,14.08s.74,11.12,2.22,14.08c2.22,3,4.45,4.45,8.15,4.45s6.67-1.48,8.15-4.45c2.23-3,3-7.41,3-14.08s-.74-11.11-3-14.08c-1.48-3-4.44-4.44-8.15-4.44S369.08,561.64,366.86,564.6Z"/><path class="cls-1" d="M429.11,566.83A30.56,30.56,0,0,1,431.34,555a23,23,0,0,1,4.44-9.64,21.23,21.23,0,0,1,7.41-6.67,17.7,17.7,0,0,1,8.16-4.44c3-1.49,5.93-1.49,9.63-1.49a65.36,65.36,0,0,1,12.6,1.49,12.43,12.43,0,0,0,3.71,1.48c1.48,0,1.48-.74,2.22-.74.74-.74.74-1.48,1.48-2.23h2.22v20.76H481a25.67,25.67,0,0,0-5.19-11.12c-.74-.74-1.48-2.22-2.22-3l-2.22-2.22a10.6,10.6,0,0,0-4.45-1.48A16.35,16.35,0,0,0,461,535c-6.67,0-11.86,2.22-15.56,8.15-3.71,5.19-5.19,13.34-5.19,23.72,0,9.63,1.48,17.78,5.19,23A18.33,18.33,0,0,0,461,598c4.45,0,8.15-1.48,10.38-4.44,3-3,3.7-6.67,3.7-11.12v-6.67H461.72V573.5h33.35v2.22H484.7v23h-2.23c0-.74-.74-1.48-.74-2.22a2.72,2.72,0,0,0-2.22-.74c-1.48,0-3,.74-5.19,1.48a33.72,33.72,0,0,1-13.34,3A30.78,30.78,0,0,1,449.12,598a28.09,28.09,0,0,1-9.63-6.67c-3-3-5.93-6.67-7.41-10.37C430.6,576.46,429.11,571.27,429.11,566.83Z"/><path class="cls-1" d="M497.3,598.69v-2.22H504V560.9H497.3v-2.23h14.08v9.64h.74c1.48-3.71,3-6.67,4.44-8.15a12.5,12.5,0,0,1,7.42-2.23,8.37,8.37,0,0,1,5.92,2.23,10.59,10.59,0,0,1,1.49,5.18,9.41,9.41,0,0,1-.74,4.45,5.7,5.7,0,0,1-3.71,1.48c-.74,0-1.48,0-1.48-.74-.74-.74-1.48-.74-1.48-2.22v-5.19c0-2.22-.75-3-2.23-3-2.22,0-3,.74-4.44,2.22a11.24,11.24,0,0,0-3,4.45c-2.22,3.7-3,8.15-3,13.34v16.3h6.67v2.22Z"/><path class="cls-1" d="M538.8,589.8c0-3.71,1.48-5.93,3-8.15,2.23-1.48,4.45-2.23,8.16-3,2.22-.74,4.44-.74,5.92-1.48s3.71-1.48,5.19-3v-7.41c-.74-1.49-.74-2.23-1.48-3a5.76,5.76,0,0,0-3-3c-.74-.74-2.22-.74-3.7-.74a13.77,13.77,0,0,0-5.19,1.48,3.84,3.84,0,0,0-1.48,3,2.75,2.75,0,0,0,.74,2.23c.74.74.74,2.22.74,3A2.72,2.72,0,0,1,547,572c-.74.74-1.48.74-3,.74s-3,0-3.71-.74-.74-2.22-.74-3.7c0-2.23,1.48-5.19,3.7-7.41,3-1.49,5.93-3,10.38-3q7.78,0,11.12,4.45a18.21,18.21,0,0,1,3.7,11.12v17.78a6.27,6.27,0,0,0,1.48,4.45,3.88,3.88,0,0,0,3,1.48c.74,0,2.22,0,3-.74l.74,2.22a9.39,9.39,0,0,1-4.44.74c-3,0-5.19,0-6.67-1.48-2.23-.74-3-3-3.71-5.19H561a17.13,17.13,0,0,1-5.19,5.19,14.79,14.79,0,0,1-6.67,1.48,12.55,12.55,0,0,1-7.41-2.22C540.28,595,538.8,592.76,538.8,589.8Zm7.41-.74c0,5.19,2.22,7.41,6.67,7.41a6.43,6.43,0,0,0,4.45-2.22,7.6,7.6,0,0,0,3.7-4.45V576.46a6.4,6.4,0,0,1-4.45,2.22c-.74.74-3,1.49-5.18,1.49C547.69,581.65,546.21,584.61,546.21,589.06Zm3.71-38.54,4.44-13.34c1.48-3,3-4.45,4.45-4.45s2.22,0,3,.75c0,.74.74.74.74,2.22a6.43,6.43,0,0,1-2.22,4.45l-8.89,11.11Z"/><path class="cls-1" d="M582.52,560.9v-2.23h6.67v-3c0-6.67,1.49-12.6,4.45-16.31a17.6,17.6,0,0,1,5.93-6.67,14.31,14.31,0,0,1,7.41-2.22,21.9,21.9,0,0,1,7.41,1.48,9.43,9.43,0,0,1,3,6.67,5.61,5.61,0,0,1-1.49,3.71,3,3,0,0,1-3,1.48c-3,0-3.71-.74-3.71-3v-3c0-.74.75-1.48.75-2.22s-.75-1.48-.75-2.22a3.82,3.82,0,0,0-3-1.49c-3,0-5.19,2.23-6.67,5.19-2.22,3-3,7.41-3,13.34v8.15h9.63v2.23h-9.63v35.57h6.67v2.22H582.52v-2.22h6.67V560.9Z"/><path class="cls-1" d="M614.39,598.69v-2.22h6.67V560.9h-6.67v-2.23h14.08v37.8h6.67v2.22Zm5.93-57.8a5.38,5.38,0,0,1,0-7.41c1.48-1.49,2.22-2.23,3.71-2.23a6.37,6.37,0,0,1,4.44,2.23,5.35,5.35,0,0,1,0,7.41,6.4,6.4,0,0,1-4.44,2.22C622.54,543.11,621.8,542.37,620.32,540.89Z"/><path class="cls-1" d="M642.55,579.42c0-3,0-5.92,1.49-8.15a14.35,14.35,0,0,1,3.7-6.67,23.43,23.43,0,0,1,6.67-5.19,26.43,26.43,0,0,1,7.41-1.48,21.6,21.6,0,0,1,6.67,1.48,16.4,16.4,0,0,1,3.71,2.23,13,13,0,0,1,3,3.7c0,1.49.74,2.23.74,3.71s-.74,2.22-1.48,3.7a5.61,5.61,0,0,1-3.7,1.49c-.74,0-2.23,0-2.23-.74-.74-.75-1.48-1.49-1.48-2.23a6.67,6.67,0,0,1,.74-3.7c0-.74.74-1.49.74-3a4,4,0,0,0-2.22-3,6.27,6.27,0,0,0-4.45-1.48c-3.7,0-6.67,1.48-8.15,5.18-2.22,3-3,7.41-3,12.6,0,5.93.74,10.38,3,14.08,2.22,3,5.19,5.19,9.64,5.19a10.52,10.52,0,0,0,4.44-1.48,5.64,5.64,0,0,0,3-1.48c.74-1.49,1.48-2.23,2.22-3.71,0-.74.74-2.22.74-3,0-1.49.74-2.23.74-3.71h2.23a9.31,9.31,0,0,1-.75,4.45,12.5,12.5,0,0,1-1.48,3.7,16.05,16.05,0,0,1-2.22,3.71c-.74,1.48-2.22,2.22-4.45,3-1.48.74-3.7.74-5.93.74-5.93,0-10.37-1.48-14.08-5.18S642.55,585.35,642.55,579.42Z"/><path class="cls-1" d="M690.73,593.51a21.5,21.5,0,0,1,0-29.65c3.7-3.7,8.15-5.93,13.34-5.93a19,19,0,0,1,14.08,5.93c3.7,3.71,5.19,8.89,5.19,14.82s-1.49,11.12-5.19,14.83c-3.71,4.44-8.15,5.92-14.08,5.92C698.88,599.43,694.43,598,690.73,593.51Zm5.18-28.91c-1.48,3-2.22,7.41-2.22,14.08s.74,11.12,2.22,14.08a10.24,10.24,0,0,0,8.16,4.45c3.7,0,6.67-1.48,8.15-4.45,2.22-3,3-7.41,3-14.08s-.74-11.11-3-14.08c-1.48-3-4.45-4.44-8.15-4.44A10.26,10.26,0,0,0,695.91,564.6Z"/><path class="cls-1" d="M179.36,468.26l.74.74h-4.45v-.74c-2.22-11.12-10.37-20-23.71-20-14.83,0-28.17,12.6-28.17,34.09,0,22.23,12.6,33.35,27.43,33.35,14.08,0,22.23-8.89,24.45-20.75v-.74h4.45l-.74.74c-2.23,13.34-11.12,24.45-28.16,24.45-18.53,0-31.87-14.08-31.87-37.05,0-22.23,14.08-37.06,32.61-37.06C168.24,445.28,177.13,454.92,179.36,468.26Z"/><path class="cls-1" d="M225.31,506.05l-2.23,5.19a19.66,19.66,0,0,1-16.3,8.15c-10.38,0-17.05-5.18-17.05-14.82,0-12.6,14.08-18.53,31.87-18.53h3.71v-9.63c-.74-6.67-5.19-11.12-14.08-11.12-7.42,0-14.83,3.71-15.57,13.34H192c.74-9.63,8.15-16.3,19.27-16.3s17,5.19,17.78,14.08v24.46c0,5.93.74,9.63,1.48,17h-4.44Zm0-9.63v-6.67c-15.57-1.48-31.87,3-31.87,14.08,0,7.41,5.19,11.86,14.08,11.86C217.9,515.69,225.31,506.8,225.31,496.42Z"/><path class="cls-1" d="M264.59,462.33v3c-9.64-.74-16.31,5.93-16.31,22.24v30.38h-4.45v-54.1h4.45v10.38l3-6.67c2.22-3.71,6.67-5.19,11.11-5.19Z"/><path class="cls-1" d="M319.43,490.49c0,17.05-9.64,28.9-25.94,28.9s-25.94-11.85-25.94-28.9c0-16.3,9.63-28.16,25.94-28.16S319.43,474.19,319.43,490.49Zm-4.45,0c0-17-9.63-25.2-21.49-25.2-11.12,0-21.49,8.16-21.49,25.2s10.37,25.2,21.49,25.2C305.35,515.69,315,507.54,315,490.49Z"/><path class="cls-1" d="M333.51,504.57v6.67c0,3,1.48,4.45,5.93,3.71v3c-.74.74-2.22.74-3.71.74-3.7,0-5.93-1.48-5.93-6.67V442.32h3.71Z"/><path class="cls-1" d="M355,452a3.19,3.19,0,0,1-3,3c-2.23,0-3.71-1.49-3.71-3s1.48-3,3.71-3A3.18,3.18,0,0,1,355,452Zm-5.19,66v-54.1h3.71v54.1Z"/><path class="cls-1" d="M410.59,487.53v30.38h-3.71V488.27c0-3.71-.74-5.93-.74-8.9-.74-8.15-5.19-14.08-15.56-14.08-9.64,0-17.79,6.67-17.79,22.24v30.38h-4.45v-54.1h4.45v11.12l2.22-5.19c3.71-5.19,9.64-7.41,16.31-7.41,11.11,0,17.78,5.93,18.52,16.3C410.59,481.6,410.59,483.08,410.59,487.53Z"/><path class="cls-1" d="M458,506.05l-2.23,5.19c-3.7,5.19-10.37,8.15-17,8.15-9.64,0-17.05-5.18-17.05-14.82,0-12.6,14.82-18.53,32.61-18.53H458v-9.63c-.74-6.67-5.93-11.12-14.08-11.12-7.42,0-14.83,3.71-15.57,13.34h-4.44c.74-9.63,8.89-16.3,20-16.3s17,5.19,17.78,14.08v24.46c0,5.93.74,9.63.74,17h-3.7Zm0-9.63v-6.67c-15.57-1.48-31.87,3-31.87,14.08,0,7.41,4.45,11.86,14.08,11.86C450.61,515.69,458,506.8,458,496.42Z"/><path class="cls-1" d="M565.48,517.91h-3.71v-40c0-8.89-.74-19.27,0-28.16-3.7,8.89-7.41,19.27-11.11,28.16l-16.31,40H529.9l-16.3-40c-3.7-8.89-7.41-19.27-11.12-28.16.74,8.89.74,19.27.74,28.16v40h-4.44V446.76h6.67l26.68,67.45,27.42-67.45h5.93Z"/><path class="cls-1" d="M613.65,506.05l-3,5.19a19.69,19.69,0,0,1-16.31,8.15c-10.37,0-17-5.18-17-14.82C577.34,492,591.42,486,610,486h3v-9.63c-.74-6.67-5.19-11.12-14.08-11.12-7.41,0-14.08,3.71-15.56,13.34h-3.71c.74-9.63,8.89-16.3,19.27-16.3,11.86,0,17,5.19,17.79,14.08a22.89,22.89,0,0,1,.74,6.67v17.79a143.13,143.13,0,0,0,.74,17h-3.71Zm-.74-9.63v-6.67c-15.56-1.48-31.13,3-31.13,14.08,0,7.41,4.45,11.86,13.34,11.86C606.24,515.69,612.91,506.8,612.91,496.42Z"/><path class="cls-1" d="M652.93,462.33v3c-10.38-.74-17,5.93-17,22.24v30.38h-3.7v-54.1h3.7v10.38l3-6.67A13.32,13.32,0,0,1,650,462.33Z"/><path class="cls-1" d="M660.34,517.91v-54.1h3.71v54.1Zm0-60L667,446.76h3.71l-7.41,11.12Z"/><path class="cls-1" d="M721.11,487.53v30.38h-3.7V488.27a33.33,33.33,0,0,0-.74-8.9c-.75-8.15-5.19-14.08-15.57-14.08-8.89,0-17.78,6.67-17.78,22.24v30.38h-4.45v-54.1h4.45v11.12l2.22-5.19a20,20,0,0,1,16.3-7.41c11.12,0,17.79,5.93,18.53,16.3C721.11,481.6,721.11,483.08,721.11,487.53Z"/></svg>